<svg width="3370" height="2084" xmlns="http://www.w3.org/2000/svg" xmlns:xlink="http://www.w3.org/1999/xlink" xml:space="preserve" overflow="hidden"><defs><clipPath id="clip0"><rect x="543" y="295" width="3370" height="2084"/></clipPath></defs><g clip-path="url(#clip0)" transform="translate(-543 -295)"><path d="M543 295 3913 295 3913 2379 543 2379 543 295Z" fill="#FFFFFF" fill-rule="evenodd"/><path d="M1163.5 399.5 1163.5 1983.5" stroke="#333333" stroke-width="3.4375" stroke-miterlimit="8" fill="none" fill-rule="evenodd"/><path d="M1826.5 399.5 1826.5 1983.5" stroke="#CCCCCC" stroke-width="3.4375" stroke-miterlimit="8" fill="none" fill-rule="evenodd"/><path d="M2489.5 399.5 2489.5 1983.5" stroke="#CCCCCC" stroke-width="3.4375" stroke-miterlimit="8" fill="none" fill-rule="evenodd"/><path d="M3146.5 399.5 3146.5 1983.5" stroke="#CCCCCC" stroke-width="3.4375" stroke-miterlimit="8" fill="none" fill-rule="evenodd"/><path d="M3809.5 399.5 3809.5 1983.5" stroke="#CCCCCC" stroke-width="3.4375" stroke-miterlimit="8" fill="none" fill-rule="evenodd"/><path d="M1166.5 694.5 1166.5 503.5 1385.28 503.5C1391.48 503.5 1396.5 508.53 1396.5 514.735L1396.5 683.265C1396.5 689.47 1391.48 694.5 1385.28 694.5Z" stroke="#000000" stroke-width="6.875" stroke-miterlimit="8" stroke-opacity="0" fill="none" fill-rule="evenodd"/><path d="M1169 694 1169 503 1388.73 503C1394.96 503 1400 508.03 1400 514.235L1400 682.765C1400 688.97 1394.96 694 1388.73 694Z" fill="#0A5126" fill-rule="evenodd"/><path d="M1166.5 992.5 1166.5 801.5 3099.26 801.5C3105.47 801.5 3110.5 806.53 3110.5 812.735L3110.5 981.265C3110.5 987.47 3105.47 992.5 3099.26 992.5Z" stroke="#000000" stroke-width="6.875" stroke-miterlimit="8" stroke-opacity="0" fill="none" fill-rule="evenodd"/><path d="M1169 992 1169 801 3101.76 801C3107.97 801 3113 806.03 3113 812.235L3113 980.765C3113 986.97 3107.97 992 3101.76 992Z" fill="#92D050" fill-rule="evenodd"/><path d="M1166.5 1289.5 1166.5 1098.5 2767.27 1098.5C2773.47 1098.5 2778.5 1103.53 2778.5 1109.74L2778.5 1278.26C2778.5 1284.47 2773.47 1289.5 2767.27 1289.5Z" stroke="#000000" stroke-width="6.875" stroke-miterlimit="8" stroke-opacity="0" fill="none" fill-rule="evenodd"/><path d="M1169 1289 1169 1098 2769.77 1098C2775.97 1098 2781 1103.03 2781 1109.24L2781 1277.76C2781 1283.97 2775.97 1289 2769.77 1289Z" fill="#FFFF00" fill-rule="evenodd"/><path d="M1166.5 1581.5 1166.5 1390.5 3464.26 1390.5C3470.47 1390.5 3475.5 1395.53 3475.5 1401.74L3475.5 1570.26C3475.5 1576.47 3470.47 1581.5 3464.26 1581.5Z" stroke="#000000" stroke-width="6.875" stroke-miterlimit="8" stroke-opacity="0" fill="none" fill-rule="evenodd"/><path d="M1169 1581 1169 1390 3466.76 1390C3472.97 1390 3478 1395.03 3478 1401.24L3478 1569.76C3478 1575.97 3472.97 1581 3466.76 1581Z" fill="#FFC000" fill-rule="evenodd"/><path d="M1166.5 1879.5 1166.5 1688.5 1655.26 1688.5C1661.47 1688.5 1666.5 1693.53 1666.5 1699.74L1666.5 1868.26C1666.5 1874.47 1661.47 1879.5 1655.26 1879.5Z" stroke="#000000" stroke-width="6.875" stroke-miterlimit="8" stroke-opacity="0" fill="none" fill-rule="evenodd"/><path d="M1169 1879 1169 1688 1657.76 1688C1663.97 1688 1669 1693.03 1669 1699.24L1669 1867.76C1669 1873.97 1663.97 1879 1657.76 1879Z" fill="#FF0000" fill-rule="evenodd"/><path d="M2118 2257.84 2118 2209.79 2136.24 2209.79C2139.4 2209.79 2141.83 2209.93 2143.52 2210.22 2145.92 2210.63 2147.91 2211.39 2149.49 2212.5 2151.13 2213.6 2152.41 2215.15 2153.35 2217.13 2154.34 2219.11 2154.84 2221.29 2154.84 2223.68 2154.84 2227.76 2153.52 2231.22 2150.89 2234.08 2148.32 2236.87 2143.61 2238.27 2136.77 2238.27L2124.4 2238.27 2124.4 2257.84 2118 2257.84ZM2124.4 2232.68 2136.86 2232.68C2141.01 2232.68 2143.93 2231.92 2145.63 2230.41 2147.38 2228.83 2148.26 2226.65 2148.26 2223.85 2148.26 2221.87 2147.74 2220.18 2146.68 2218.79 2145.69 2217.33 2144.37 2216.37 2142.74 2215.9 2141.62 2215.61 2139.64 2215.47 2136.77 2215.47L2124.4 2215.47 2124.4 2232.68ZM2186.07 2246.66 2192.21 2247.36C2191.27 2250.91 2189.49 2253.68 2186.86 2255.66 2184.22 2257.64 2180.89 2258.63 2176.86 2258.63 2171.77 2258.63 2167.71 2257.06 2164.66 2253.91 2161.68 2250.77 2160.19 2246.37 2160.19 2240.72 2160.19 2234.89 2161.71 2230.38 2164.75 2227.17 2167.79 2223.91 2171.71 2222.28 2176.51 2222.28 2181.18 2222.28 2184.98 2223.85 2187.91 2227 2190.89 2230.15 2192.38 2234.6 2192.38 2240.37 2192.38 2240.72 2192.38 2241.24 2192.38 2241.94L2166.33 2241.94C2166.56 2245.79 2167.65 2248.73 2169.58 2250.77 2171.51 2252.75 2173.93 2253.74 2176.86 2253.74 2179.02 2253.74 2180.86 2253.18 2182.38 2252.08 2183.96 2250.91 2185.19 2249.11 2186.07 2246.66ZM2166.68 2237.14 2186.15 2237.14C2185.92 2234.17 2185.19 2231.95 2183.96 2230.5 2182.03 2228.22 2179.58 2227.09 2176.59 2227.09 2173.85 2227.09 2171.54 2227.99 2169.66 2229.8 2167.85 2231.6 2166.86 2234.05 2166.68 2237.14ZM2201.42 2257.84 2201.42 2223.07 2206.77 2223.07 2206.77 2228.31C2208.11 2225.86 2209.34 2224.26 2210.45 2223.5 2211.62 2222.69 2212.91 2222.28 2214.31 2222.28 2216.3 2222.28 2218.32 2222.89 2220.36 2224.12L2218.35 2229.62C2216.88 2228.75 2215.45 2228.31 2214.05 2228.31 2212.7 2228.31 2211.5 2228.72 2210.45 2229.53 2209.46 2230.29 2208.76 2231.37 2208.35 2232.77 2207.64 2234.86 2207.29 2237.14 2207.29 2239.58L2207.29 2257.84 2201.42 2257.84ZM2246.77 2245.09 2252.55 2245.87C2251.91 2249.83 2250.27 2252.95 2247.64 2255.22 2245.01 2257.5 2241.8 2258.63 2237.99 2258.63 2233.2 2258.63 2229.34 2257.09 2226.42 2254 2223.55 2250.85 2222.12 2246.37 2222.12 2240.54 2222.12 2236.82 2222.73 2233.55 2223.96 2230.76 2225.25 2227.9 2227.15 2225.78 2229.66 2224.38 2232.23 2222.98 2235.04 2222.28 2238.08 2222.28 2241.82 2222.28 2244.89 2223.24 2247.29 2225.16 2249.75 2227.03 2251.33 2229.74 2252.03 2233.29L2246.24 2234.17C2245.71 2231.83 2244.75 2230.09 2243.34 2228.92 2241.94 2227.7 2240.25 2227.09 2238.26 2227.09 2235.27 2227.09 2232.85 2228.17 2230.98 2230.32 2229.11 2232.42 2228.17 2235.77 2228.17 2240.37 2228.17 2245.09 2229.08 2248.49 2230.89 2250.59 2232.7 2252.69 2235.04 2253.74 2237.91 2253.74 2240.25 2253.74 2242.18 2253.04 2243.7 2251.64 2245.27 2250.24 2246.3 2248.06 2246.77 2245.09ZM2281.5 2246.66 2287.64 2247.36C2286.71 2250.91 2284.92 2253.68 2282.29 2255.66 2279.66 2257.64 2276.33 2258.63 2272.29 2258.63 2267.2 2258.63 2263.14 2257.06 2260.1 2253.91 2257.12 2250.77 2255.62 2246.37 2255.62 2240.72 2255.62 2234.89 2257.15 2230.38 2260.19 2227.17 2263.23 2223.91 2267.15 2222.28 2271.94 2222.28 2276.62 2222.28 2280.42 2223.85 2283.34 2227 2286.33 2230.15 2287.82 2234.6 2287.82 2240.37 2287.82 2240.72 2287.82 2241.24 2287.82 2241.94L2261.76 2241.94C2262 2245.79 2263.08 2248.73 2265.01 2250.77 2266.94 2252.75 2269.37 2253.74 2272.29 2253.74 2274.45 2253.74 2276.3 2253.18 2277.82 2252.08 2279.4 2250.91 2280.62 2249.11 2281.5 2246.66ZM2262.12 2237.14 2281.59 2237.14C2281.35 2234.17 2280.62 2231.95 2279.4 2230.5 2277.47 2228.22 2275.01 2227.09 2272.03 2227.09 2269.28 2227.09 2266.97 2227.99 2265.1 2229.8 2263.29 2231.6 2262.29 2234.05 2262.12 2237.14ZM2296.94 2257.84 2296.94 2223.07 2302.2 2223.07 2302.2 2227.96C2304.77 2224.17 2308.49 2222.28 2313.34 2222.28 2315.45 2222.28 2317.38 2222.66 2319.13 2223.42 2320.94 2224.18 2322.29 2225.16 2323.17 2226.39 2324.04 2227.61 2324.66 2229.04 2325.01 2230.67 2325.18 2231.78 2325.27 2233.7 2325.27 2236.44L2325.27 2257.84 2319.39 2257.84 2319.39 2236.7C2319.39 2234.25 2319.16 2232.45 2318.69 2231.28 2318.22 2230.12 2317.41 2229.18 2316.24 2228.49 2315.07 2227.73 2313.69 2227.35 2312.11 2227.35 2309.6 2227.35 2307.41 2228.17 2305.54 2229.8 2303.72 2231.37 2302.82 2234.37 2302.82 2238.8L2302.82 2257.84 2296.94 2257.84ZM2349.13 2252.6 2350.01 2257.76C2348.31 2258.11 2346.82 2258.28 2345.53 2258.28 2343.37 2258.28 2341.7 2257.96 2340.53 2257.32 2339.36 2256.62 2338.52 2255.72 2337.99 2254.61 2337.52 2253.5 2337.29 2251.17 2337.29 2247.62L2337.29 2227.61 2332.99 2227.61 2332.99 2223.07 2337.29 2223.07 2337.29 2214.42 2343.16 2210.92 2343.16 2223.07 2349.13 2223.07 2349.13 2227.61 2343.16 2227.61 2343.16 2247.97C2343.16 2249.66 2343.25 2250.74 2343.43 2251.2 2343.66 2251.67 2344.01 2252.05 2344.48 2252.34 2344.95 2252.63 2345.62 2252.78 2346.5 2252.78 2347.2 2252.78 2348.08 2252.72 2349.13 2252.6ZM2375.88 2253.56C2373.66 2255.43 2371.53 2256.74 2369.48 2257.5 2367.49 2258.25 2365.33 2258.63 2362.99 2258.63 2359.13 2258.63 2356.18 2257.7 2354.13 2255.83 2352.08 2253.97 2351.06 2251.58 2351.06 2248.67 2351.06 2246.98 2351.44 2245.44 2352.2 2244.04 2352.96 2242.58 2353.98 2241.45 2355.27 2240.63 2356.56 2239.76 2357.99 2239.12 2359.57 2238.71 2360.68 2238.36 2362.43 2238.04 2364.83 2237.75 2369.57 2237.22 2373.08 2236.55 2375.36 2235.74 2375.36 2234.92 2375.36 2234.43 2375.36 2234.25 2375.36 2231.81 2374.8 2230.09 2373.69 2229.1 2372.17 2227.82 2369.92 2227.17 2366.94 2227.17 2364.19 2227.17 2362.14 2227.67 2360.8 2228.66 2359.45 2229.59 2358.46 2231.28 2357.81 2233.73L2352.02 2232.94C2352.55 2230.5 2353.43 2228.51 2354.66 2227 2355.88 2225.49 2357.64 2224.32 2359.92 2223.5 2362.2 2222.69 2364.83 2222.28 2367.81 2222.28 2370.8 2222.28 2373.22 2222.63 2375.09 2223.33 2376.96 2224.03 2378.34 2224.9 2379.22 2225.95 2380.09 2227 2380.71 2228.34 2381.06 2229.97 2381.23 2230.96 2381.32 2232.77 2381.32 2235.39L2381.32 2243.25C2381.32 2248.73 2381.44 2252.19 2381.67 2253.65 2381.96 2255.11 2382.49 2256.5 2383.25 2257.84L2377.02 2257.84C2376.44 2256.62 2376.06 2255.19 2375.88 2253.56ZM2375.36 2240.37C2373.19 2241.24 2369.98 2242 2365.71 2242.64 2363.25 2242.99 2361.53 2243.4 2360.53 2243.86 2359.54 2244.27 2358.75 2244.88 2358.16 2245.7 2357.64 2246.51 2357.37 2247.45 2357.37 2248.49 2357.37 2250.07 2357.96 2251.38 2359.13 2252.43 2360.36 2253.48 2362.11 2254 2364.39 2254 2366.67 2254 2368.69 2253.5 2370.44 2252.51 2372.26 2251.52 2373.57 2250.16 2374.39 2248.41 2375.03 2247.07 2375.36 2245.12 2375.36 2242.55L2375.36 2240.37ZM2391.23 2260.73 2397.02 2261.6C2397.26 2263.35 2397.93 2264.63 2399.04 2265.45 2400.5 2266.55 2402.49 2267.11 2405 2267.11 2407.75 2267.11 2409.86 2266.55 2411.32 2265.45 2412.84 2264.34 2413.86 2262.83 2414.39 2260.9 2414.74 2259.68 2414.89 2257.15 2414.83 2253.3 2412.26 2256.33 2409.04 2257.84 2405.18 2257.84 2400.38 2257.84 2396.67 2256.13 2394.04 2252.69 2391.41 2249.19 2390.09 2245.06 2390.09 2240.28 2390.09 2236.96 2390.68 2233.9 2391.85 2231.11 2393.07 2228.25 2394.83 2226.07 2397.11 2224.55 2399.39 2223.04 2402.08 2222.28 2405.18 2222.28 2409.33 2222.28 2412.75 2223.94 2415.44 2227.26L2415.44 2223.07 2420.88 2223.07 2420.88 2253.13C2420.88 2258.54 2420.32 2262.39 2419.21 2264.66 2418.1 2266.93 2416.35 2268.71 2413.95 2269.99 2411.55 2271.33 2408.6 2272 2405.09 2272 2400.94 2272 2397.58 2271.07 2395 2269.2 2392.43 2267.34 2391.17 2264.51 2391.23 2260.73ZM2396.14 2239.84C2396.14 2244.39 2397.05 2247.71 2398.86 2249.81 2400.68 2251.9 2402.96 2252.95 2405.71 2252.95 2408.45 2252.95 2410.73 2251.9 2412.55 2249.81 2414.42 2247.71 2415.35 2244.45 2415.35 2240.02 2415.35 2235.77 2414.39 2232.56 2412.46 2230.41 2410.59 2228.25 2408.31 2227.17 2405.62 2227.17 2402.99 2227.17 2400.74 2228.25 2398.86 2230.41 2397.05 2232.5 2396.14 2235.65 2396.14 2239.84ZM2455.53 2246.66 2461.67 2247.36C2460.73 2250.91 2458.95 2253.68 2456.32 2255.66 2453.69 2257.64 2450.35 2258.63 2446.32 2258.63 2441.23 2258.63 2437.17 2257.06 2434.13 2253.91 2431.14 2250.77 2429.65 2246.37 2429.65 2240.72 2429.65 2234.89 2431.17 2230.38 2434.21 2227.17 2437.25 2223.91 2441.17 2222.28 2445.97 2222.28 2450.65 2222.28 2454.45 2223.85 2457.37 2227 2460.35 2230.15 2461.84 2234.6 2461.84 2240.37 2461.84 2240.72 2461.84 2241.24 2461.84 2241.94L2435.79 2241.94C2436.03 2245.79 2437.11 2248.73 2439.04 2250.77 2440.97 2252.75 2443.39 2253.74 2446.32 2253.74 2448.48 2253.74 2450.32 2253.18 2451.84 2252.08 2453.42 2250.91 2454.65 2249.11 2455.53 2246.66ZM2436.14 2237.14 2455.62 2237.14C2455.38 2234.17 2454.65 2231.95 2453.42 2230.5 2451.49 2228.22 2449.04 2227.09 2446.05 2227.09 2443.31 2227.09 2441 2227.99 2439.13 2229.8 2437.31 2231.6 2436.32 2234.05 2436.14 2237.14ZM2485.61 2240.46C2485.61 2233.99 2487.4 2229.21 2490.96 2226.13 2493.95 2223.56 2497.6 2222.28 2501.93 2222.28 2506.72 2222.28 2510.64 2223.85 2513.68 2227 2516.78 2230.09 2518.33 2234.4 2518.33 2239.93 2518.33 2244.42 2517.66 2247.94 2516.31 2250.5 2514.97 2253.07 2512.98 2255.08 2510.35 2256.53 2507.78 2257.93 2504.97 2258.63 2501.93 2258.63 2497.08 2258.63 2493.13 2257.09 2490.09 2254 2487.11 2250.85 2485.61 2246.34 2485.61 2240.46ZM2491.67 2240.46C2491.67 2244.88 2492.63 2248.2 2494.56 2250.42 2496.55 2252.63 2499.01 2253.74 2501.93 2253.74 2504.91 2253.74 2507.37 2252.63 2509.3 2250.42 2511.23 2248.2 2512.19 2244.83 2512.19 2240.28 2512.19 2235.97 2511.2 2232.71 2509.21 2230.5 2507.28 2228.28 2504.85 2227.17 2501.93 2227.17 2499.01 2227.17 2496.55 2228.28 2494.56 2230.5 2492.63 2232.65 2491.67 2235.97 2491.67 2240.46ZM2528.51 2257.84 2528.51 2227.61 2523.24 2227.61 2523.24 2223.07 2528.51 2223.07 2528.51 2219.31C2528.51 2216.98 2528.71 2215.26 2529.12 2214.16 2529.71 2212.58 2530.7 2211.33 2532.1 2210.4 2533.57 2209.47 2535.58 2209 2538.16 2209 2539.85 2209 2541.69 2209.2 2543.68 2209.61L2542.8 2214.68C2541.58 2214.5 2540.41 2214.42 2539.3 2214.42 2537.48 2214.42 2536.2 2214.8 2535.44 2215.55 2534.73 2216.31 2534.38 2217.74 2534.38 2219.84L2534.38 2223.07 2541.23 2223.07 2541.23 2227.61 2534.38 2227.61 2534.38 2257.84 2528.51 2257.84ZM2595.96 2240.98 2602.28 2242.64C2600.93 2247.82 2598.53 2251.79 2595.08 2254.52 2591.63 2257.26 2587.39 2258.63 2582.36 2258.63 2577.16 2258.63 2572.92 2257.58 2569.65 2255.49 2566.37 2253.39 2563.89 2250.36 2562.19 2246.4 2560.49 2242.38 2559.65 2238.07 2559.65 2233.47 2559.65 2228.46 2560.61 2224.09 2562.54 2220.36 2564.47 2216.63 2567.19 2213.81 2570.7 2211.88 2574.26 2209.96 2578.18 2209 2582.45 2209 2587.25 2209 2591.28 2210.22 2594.56 2212.67 2597.89 2215.12 2600.2 2218.55 2601.49 2222.98L2595.17 2224.47C2594.06 2220.97 2592.42 2218.44 2590.26 2216.86 2588.15 2215.23 2585.49 2214.42 2582.28 2214.42 2578.59 2214.42 2575.49 2215.32 2572.98 2217.13 2570.52 2218.87 2568.77 2221.23 2567.72 2224.2 2566.72 2227.17 2566.22 2230.26 2566.22 2233.47 2566.22 2237.54 2566.81 2241.1 2567.98 2244.13 2569.21 2247.16 2571.08 2249.43 2573.59 2250.94 2576.11 2252.46 2578.86 2253.21 2581.84 2253.21 2585.4 2253.21 2588.42 2252.19 2590.87 2250.16 2593.39 2248.12 2595.08 2245.06 2595.96 2240.98ZM2611.75 2257.84 2611.75 2209.79 2629.91 2209.79C2633.59 2209.79 2636.54 2210.28 2638.77 2211.27 2640.99 2212.26 2642.71 2213.78 2643.94 2215.82 2645.23 2217.8 2645.87 2219.89 2645.87 2222.11 2645.87 2224.15 2645.31 2226.07 2644.2 2227.87 2643.09 2229.68 2641.4 2231.14 2639.12 2232.24 2642.04 2233.12 2644.26 2234.6 2645.78 2236.7 2647.36 2238.74 2648.15 2241.16 2648.15 2243.95 2648.15 2246.17 2647.68 2248.26 2646.75 2250.24 2645.81 2252.17 2644.64 2253.65 2643.24 2254.7 2641.84 2255.75 2640.05 2256.53 2637.89 2257.06 2635.78 2257.58 2633.21 2257.84 2630.17 2257.84L2611.75 2257.84ZM2618.15 2229.97 2628.59 2229.97C2631.4 2229.97 2633.41 2229.8 2634.64 2229.45 2636.28 2228.98 2637.51 2228.19 2638.33 2227.09 2639.15 2225.92 2639.55 2224.5 2639.55 2222.81 2639.55 2221.23 2639.17 2219.84 2638.41 2218.61 2637.65 2217.39 2636.54 2216.57 2635.08 2216.17 2633.68 2215.7 2631.25 2215.47 2627.8 2215.47L2618.15 2215.47 2618.15 2229.97ZM2618.15 2252.17 2630.17 2252.17C2632.22 2252.17 2633.65 2252.08 2634.47 2251.9 2635.99 2251.67 2637.22 2251.26 2638.15 2250.68 2639.15 2250.04 2639.96 2249.14 2640.61 2247.97 2641.25 2246.81 2641.57 2245.47 2641.57 2243.95 2641.57 2242.15 2641.1 2240.57 2640.17 2239.23 2639.29 2237.89 2638.03 2236.96 2636.4 2236.44 2634.76 2235.91 2632.39 2235.65 2629.29 2235.65L2618.15 2235.65 2618.15 2252.17ZM2679.55 2238.97 2679.55 2233.38 2699.9 2233.29 2699.9 2251.12C2696.8 2253.62 2693.59 2255.51 2690.25 2256.8 2686.92 2258.02 2683.5 2258.63 2679.99 2258.63 2675.25 2258.63 2670.93 2257.64 2667.01 2255.66 2663.15 2253.62 2660.23 2250.71 2658.24 2246.92 2656.31 2243.08 2655.34 2238.8 2655.34 2234.08 2655.34 2229.36 2656.31 2224.99 2658.24 2220.97 2660.23 2216.89 2663.06 2213.89 2666.75 2211.97 2670.43 2209.99 2674.67 2209 2679.46 2209 2682.97 2209 2686.13 2209.55 2688.94 2210.66 2691.75 2211.77 2693.94 2213.34 2695.52 2215.38 2697.15 2217.36 2698.38 2219.98 2699.2 2223.24L2693.5 2224.82C2692.74 2222.37 2691.8 2220.45 2690.69 2219.05 2689.64 2217.65 2688.12 2216.54 2686.13 2215.73 2684.14 2214.85 2681.95 2214.42 2679.55 2214.42 2676.63 2214.42 2674.09 2214.85 2671.92 2215.73 2669.82 2216.6 2668.09 2217.77 2666.75 2219.22 2665.46 2220.68 2664.47 2222.28 2663.76 2224.03 2662.54 2227 2661.92 2230.2 2661.92 2233.64 2661.92 2237.95 2662.65 2241.56 2664.11 2244.48 2665.64 2247.33 2667.8 2249.46 2670.61 2250.85 2673.41 2252.25 2676.42 2252.95 2679.64 2252.95 2682.39 2252.95 2685.08 2252.43 2687.71 2251.38 2690.34 2250.27 2692.33 2249.14 2693.67 2247.97L2693.67 2238.97 2679.55 2238.97ZM2704.38 2247.45 2710.17 2246.57C2710.52 2248.9 2711.42 2250.68 2712.88 2251.9 2714.4 2253.13 2716.54 2253.74 2719.29 2253.74 2721.98 2253.74 2723.97 2253.21 2725.25 2252.17 2726.6 2251.06 2727.27 2249.75 2727.27 2248.23 2727.27 2246.89 2726.68 2245.84 2725.52 2245.09 2724.7 2244.56 2722.68 2243.89 2719.46 2243.08 2715.14 2241.97 2712.12 2241.04 2710.43 2240.28 2708.79 2239.47 2707.53 2238.36 2706.66 2236.96 2705.78 2235.56 2705.34 2233.99 2705.34 2232.24 2705.34 2230.73 2705.69 2229.3 2706.39 2227.96 2707.1 2226.62 2708.06 2225.51 2709.29 2224.64 2710.22 2224 2711.48 2223.45 2713.06 2222.98 2714.64 2222.51 2716.36 2222.28 2718.24 2222.28 2720.92 2222.28 2723.29 2222.69 2725.34 2223.5 2727.45 2224.26 2728.99 2225.31 2729.99 2226.65 2730.98 2227.99 2731.66 2229.77 2732.01 2231.98L2726.22 2232.77C2725.98 2231.02 2725.22 2229.65 2723.94 2228.66 2722.71 2227.61 2720.92 2227.09 2718.59 2227.09 2715.9 2227.09 2713.97 2227.55 2712.8 2228.49 2711.63 2229.36 2711.04 2230.41 2711.04 2231.63 2711.04 2232.39 2711.28 2233.06 2711.74 2233.64 2712.27 2234.28 2713.03 2234.81 2714.02 2235.21 2714.61 2235.45 2716.36 2235.94 2719.29 2236.7 2723.5 2237.86 2726.42 2238.8 2728.06 2239.5 2729.7 2240.19 2730.98 2241.21 2731.92 2242.55 2732.85 2243.89 2733.32 2245.58 2733.32 2247.62 2733.32 2249.6 2732.74 2251.47 2731.57 2253.21 2730.46 2254.9 2728.82 2256.24 2726.66 2257.23 2724.49 2258.17 2722.04 2258.63 2719.29 2258.63 2714.73 2258.63 2711.25 2257.7 2708.85 2255.83 2706.51 2253.91 2705.02 2251.12 2704.38 2247.45ZM2768.58 2272C2765.31 2267.86 2762.53 2263.06 2760.25 2257.58 2758.03 2252.05 2756.92 2246.34 2756.92 2240.46 2756.92 2235.27 2757.74 2230.29 2759.37 2225.51 2761.36 2219.98 2764.43 2214.48 2768.58 2209L2772.79 2209C2770.16 2213.54 2768.41 2216.78 2767.53 2218.7 2766.19 2221.73 2765.13 2224.87 2764.37 2228.14 2763.44 2232.21 2762.97 2236.32 2762.97 2240.46 2762.97 2251 2766.24 2261.51 2772.79 2272L2768.58 2272ZM2779.2 2221.32C2779.2 2217.88 2780.04 2214.97 2781.74 2212.58 2783.5 2210.19 2786.01 2209 2789.28 2209 2792.32 2209 2794.84 2210.08 2796.83 2212.23 2798.82 2214.39 2799.81 2217.53 2799.81 2221.67 2799.81 2225.75 2798.79 2228.89 2796.74 2231.11 2794.75 2233.26 2792.3 2234.34 2789.37 2234.34 2786.45 2234.34 2784.02 2233.26 2782.09 2231.11 2780.16 2228.95 2779.2 2225.69 2779.2 2221.32ZM2789.46 2213.02C2788 2213.02 2786.77 2213.66 2785.78 2214.94 2784.84 2216.22 2784.37 2218.55 2784.37 2221.93 2784.37 2225.02 2784.84 2227.2 2785.78 2228.49 2786.77 2229.71 2788 2230.32 2789.46 2230.32 2790.98 2230.32 2792.21 2229.68 2793.14 2228.4 2794.14 2227.12 2794.63 2224.82 2794.63 2221.49 2794.63 2218.35 2794.14 2216.17 2793.14 2214.94 2792.15 2213.66 2790.92 2213.02 2789.46 2213.02ZM2789.46 2259.59 2815.86 2209 2820.69 2209 2794.37 2259.59 2789.46 2259.59ZM2810.34 2246.57C2810.34 2243.14 2811.18 2240.22 2812.88 2237.83 2814.63 2235.45 2817.18 2234.25 2820.51 2234.25 2823.55 2234.25 2826.07 2235.33 2828.05 2237.49 2830.04 2239.58 2831.04 2242.73 2831.04 2246.92 2831.04 2251 2830.01 2254.15 2827.97 2256.36 2825.98 2258.51 2823.49 2259.59 2820.51 2259.59 2817.65 2259.59 2815.22 2258.51 2813.23 2256.36 2811.3 2254.2 2810.34 2250.94 2810.34 2246.57ZM2820.69 2238.27C2819.17 2238.27 2817.91 2238.91 2816.91 2240.19 2815.98 2241.48 2815.51 2243.81 2815.51 2247.18 2815.51 2250.21 2816.01 2252.37 2817 2253.65 2818 2254.93 2819.22 2255.57 2820.69 2255.57 2822.15 2255.57 2823.38 2254.93 2824.37 2253.65 2825.36 2252.37 2825.86 2250.04 2825.86 2246.66 2825.86 2243.57 2825.36 2241.42 2824.37 2240.19 2823.38 2238.91 2822.15 2238.27 2820.69 2238.27ZM2845.33 2272 2841.12 2272C2847.67 2261.51 2850.95 2251 2850.95 2240.46 2850.95 2236.38 2850.48 2232.3 2849.54 2228.22 2848.78 2224.96 2847.73 2221.82 2846.39 2218.79 2845.51 2216.86 2843.76 2213.6 2841.12 2209L2845.33 2209C2849.43 2214.48 2852.47 2219.98 2854.46 2225.51 2856.15 2230.29 2857 2235.27 2857 2240.46 2857 2246.34 2855.86 2252.05 2853.58 2257.58 2851.3 2263.06 2848.55 2267.86 2845.33 2272Z" fill-rule="evenodd"/><path d="M708.845 1539 660.786 1539 660.786 1532.68 680.534 1532.68 680.534 1507.6 660.786 1507.6 660.786 1501.2 708.845 1501.2 708.845 1507.6 686.213 1507.6 686.213 1532.68 708.845 1532.68 708.845 1539ZM697.66 1465.58 698.359 1459.44C701.913 1460.38 704.68 1462.16 706.66 1464.79 708.641 1467.43 709.631 1470.76 709.631 1474.79 709.631 1479.88 708.058 1483.95 704.913 1486.99 701.767 1489.97 697.369 1491.46 691.719 1491.46 685.893 1491.46 681.378 1489.94 678.175 1486.9 674.913 1483.86 673.282 1479.94 673.282 1475.14 673.282 1470.47 674.854 1466.67 678 1463.74 681.145 1460.76 685.602 1459.27 691.369 1459.27 691.719 1459.27 692.243 1459.27 692.942 1459.27L692.942 1485.32C696.787 1485.09 699.728 1484 701.767 1482.07 703.747 1480.14 704.738 1477.72 704.738 1474.79 704.738 1472.63 704.184 1470.79 703.077 1469.27 701.913 1467.69 700.107 1466.46 697.66 1465.58ZM688.136 1484.97 688.136 1465.5C685.165 1465.73 682.951 1466.46 681.495 1467.69 679.223 1469.62 678.087 1472.07 678.087 1475.06 678.087 1477.8 678.99 1480.12 680.796 1481.99 682.602 1483.8 685.048 1484.79 688.136 1484.97ZM704.563 1427.34C706.427 1429.56 707.738 1431.7 708.495 1433.74 709.252 1435.73 709.631 1437.9 709.631 1440.23 709.631 1444.09 708.699 1447.05 706.835 1449.09 704.971 1451.14 702.583 1452.16 699.67 1452.16 697.981 1452.16 696.437 1451.78 695.039 1451.02 693.583 1450.26 692.447 1449.24 691.631 1447.95 690.758 1446.67 690.116 1445.23 689.709 1443.66 689.359 1442.54 689.039 1440.79 688.747 1438.39 688.223 1433.66 687.553 1430.15 686.738 1427.87 685.922 1427.87 685.427 1427.87 685.252 1427.87 682.806 1427.87 681.087 1428.42 680.097 1429.53 678.816 1431.05 678.175 1433.3 678.175 1436.29 678.175 1439.04 678.67 1441.08 679.66 1442.43 680.592 1443.77 682.281 1444.77 684.728 1445.41L683.942 1451.2C681.495 1450.67 679.514 1449.8 678 1448.57 676.485 1447.34 675.321 1445.58 674.505 1443.3 673.689 1441.02 673.282 1438.39 673.282 1435.41 673.282 1432.43 673.631 1430 674.33 1428.13 675.029 1426.26 675.903 1424.88 676.952 1424.01 678 1423.13 679.34 1422.52 680.971 1422.17 681.961 1421.99 683.767 1421.9 686.388 1421.9L694.253 1421.9C699.728 1421.9 703.194 1421.79 704.65 1421.55 706.107 1421.26 707.505 1420.73 708.845 1419.97L708.845 1426.2C707.621 1426.78 706.194 1427.16 704.563 1427.34ZM691.369 1427.87C692.243 1430.03 693 1433.25 693.641 1437.52 693.99 1439.97 694.398 1441.7 694.864 1442.69 695.272 1443.68 695.884 1444.47 696.699 1445.06 697.515 1445.58 698.446 1445.85 699.495 1445.85 701.068 1445.85 702.379 1445.26 703.427 1444.09 704.476 1442.87 705 1441.11 705 1438.83 705 1436.55 704.505 1434.53 703.514 1432.78 702.524 1430.97 701.155 1429.65 699.407 1428.83 698.068 1428.19 696.117 1427.87 693.553 1427.87L691.369 1427.87ZM703.602 1397.96 708.757 1397.08C709.107 1398.77 709.281 1400.27 709.281 1401.55 709.281 1403.72 708.961 1405.38 708.32 1406.55 707.621 1407.72 706.718 1408.57 705.611 1409.1 704.505 1409.56 702.174 1409.8 698.621 1409.8L678.611 1409.8 678.611 1414.1 674.068 1414.1 674.068 1409.8 665.417 1409.8 661.922 1403.92 674.068 1403.92 674.068 1397.96 678.611 1397.96 678.611 1403.92 698.971 1403.92C700.66 1403.92 701.738 1403.83 702.204 1403.66 702.67 1403.42 703.049 1403.07 703.34 1402.6 703.631 1402.14 703.777 1401.46 703.777 1400.59 703.777 1399.89 703.719 1399.01 703.602 1397.96ZM708.845 1376.38 660.786 1376.38 660.786 1354.98C660.786 1350.65 661.224 1347.37 662.097 1345.15 662.971 1342.93 664.514 1341.15 666.728 1339.8 668.884 1338.46 671.272 1337.78 673.893 1337.78 677.33 1337.78 680.214 1338.9 682.544 1341.12 684.874 1343.34 686.359 1346.76 687 1351.38 687.816 1349.68 688.602 1348.4 689.359 1347.52 691.049 1345.65 693.175 1343.9 695.738 1342.26L708.845 1333.84 708.845 1341.91 698.884 1348.22C695.971 1350.09 693.757 1351.64 692.243 1352.87 690.728 1354.04 689.68 1355.12 689.097 1356.12 688.456 1357.05 687.99 1358.02 687.699 1359.01 687.582 1359.71 687.524 1360.88 687.524 1362.52L687.524 1369.98 708.845 1369.98 708.845 1376.38ZM682.02 1369.98 682.02 1356.2C682.02 1353.34 681.728 1351.09 681.145 1349.45 680.505 1347.75 679.544 1346.5 678.262 1345.68 676.922 1344.8 675.466 1344.36 673.893 1344.36 671.621 1344.36 669.757 1345.21 668.301 1346.91 666.845 1348.54 666.117 1351.15 666.117 1354.71L666.117 1369.98 682.02 1369.98ZM667.602 1326.64 660.786 1326.64 660.786 1320.68 667.602 1320.68 667.602 1326.64ZM708.845 1326.64 674.068 1326.64 674.068 1320.68 708.845 1320.68 708.845 1326.64ZM698.446 1312.17 697.573 1306.38C699.903 1306.03 701.68 1305.13 702.903 1303.66 704.126 1302.14 704.738 1300.01 704.738 1297.26 704.738 1294.57 704.214 1292.58 703.165 1291.3 702.058 1289.95 700.748 1289.28 699.233 1289.28 697.893 1289.28 696.845 1289.86 696.087 1291.03 695.563 1291.85 694.893 1293.87 694.078 1297.08 692.971 1301.41 692.039 1304.42 691.281 1306.12 690.466 1307.76 689.359 1309.01 687.961 1309.89 686.563 1310.77 684.99 1311.21 683.243 1311.21 681.728 1311.21 680.301 1310.86 678.961 1310.15 677.622 1309.45 676.515 1308.49 675.641 1307.26 675 1306.32 674.446 1305.07 673.981 1303.49 673.515 1301.91 673.282 1300.18 673.282 1298.31 673.282 1295.62 673.689 1293.25 674.505 1291.21 675.262 1289.1 676.311 1287.55 677.65 1286.56 678.99 1285.57 680.767 1284.89 682.981 1284.54L683.767 1290.33C682.02 1290.56 680.65 1291.33 679.66 1292.61 678.611 1293.84 678.087 1295.62 678.087 1297.96 678.087 1300.65 678.553 1302.58 679.486 1303.75 680.359 1304.92 681.408 1305.51 682.631 1305.51 683.388 1305.51 684.058 1305.27 684.641 1304.8 685.282 1304.28 685.806 1303.52 686.213 1302.52 686.446 1301.94 686.942 1300.18 687.699 1297.26 688.864 1293.05 689.796 1290.13 690.495 1288.49 691.194 1286.85 692.214 1285.57 693.553 1284.63 694.893 1283.69 696.582 1283.23 698.621 1283.23 700.602 1283.23 702.466 1283.81 704.214 1284.98 705.903 1286.09 707.242 1287.73 708.233 1289.89 709.165 1292.06 709.631 1294.51 709.631 1297.26 709.631 1301.82 708.699 1305.3 706.835 1307.7 704.913 1310.04 702.116 1311.53 698.446 1312.17ZM708.845 1276.12 660.786 1276.12 660.786 1270.16 688.223 1270.16 674.068 1256.21 674.068 1248.49 686.913 1261.91 708.845 1247.18 708.845 1254.46 691.019 1266.03 695.039 1270.16 708.845 1270.16 708.845 1276.12ZM691.981 1190.42 693.641 1184.11C698.825 1185.45 702.786 1187.85 705.524 1191.3 708.262 1194.75 709.631 1198.99 709.631 1204.02 709.631 1209.22 708.582 1213.46 706.486 1216.74 704.388 1220.01 701.359 1222.5 697.398 1224.19 693.378 1225.89 689.068 1226.74 684.466 1226.74 679.456 1226.74 675.088 1225.77 671.359 1223.84 667.631 1221.91 664.806 1219.2 662.883 1215.69 660.961 1212.12 660 1208.2 660 1203.93 660 1199.14 661.224 1195.1 663.67 1191.83 666.117 1188.49 669.553 1186.19 673.981 1184.9L675.466 1191.21C671.971 1192.33 669.437 1193.96 667.864 1196.13 666.233 1198.23 665.417 1200.89 665.417 1204.11 665.417 1207.79 666.32 1210.89 668.126 1213.41 669.874 1215.86 672.233 1217.62 675.204 1218.67 678.175 1219.66 681.262 1220.16 684.466 1220.16 688.544 1220.16 692.097 1219.58 695.126 1218.41 698.155 1217.18 700.427 1215.31 701.942 1212.79 703.456 1210.28 704.214 1207.53 704.214 1204.55 704.214 1200.98 703.194 1197.97 701.155 1195.51 699.116 1193 696.058 1191.3 691.981 1190.42ZM704.563 1152.27C706.427 1154.49 707.738 1156.63 708.495 1158.67 709.252 1160.66 709.631 1162.82 709.631 1165.16 709.631 1169.02 708.699 1171.98 706.835 1174.02 704.971 1176.07 702.583 1177.09 699.67 1177.09 697.981 1177.09 696.437 1176.71 695.039 1175.95 693.583 1175.19 692.447 1174.17 691.631 1172.88 690.758 1171.59 690.116 1170.16 689.709 1168.58 689.359 1167.47 689.039 1165.72 688.747 1163.32 688.223 1158.58 687.553 1155.08 686.738 1152.8 685.922 1152.8 685.427 1152.8 685.252 1152.8 682.806 1152.8 681.087 1153.35 680.097 1154.46 678.816 1155.98 678.175 1158.23 678.175 1161.22 678.175 1163.96 678.67 1166.01 679.66 1167.36 680.592 1168.7 682.281 1169.69 684.728 1170.34L683.942 1176.13C681.495 1175.6 679.514 1174.72 678 1173.5 676.485 1172.27 675.321 1170.51 674.505 1168.23 673.689 1165.95 673.282 1163.32 673.282 1160.34 673.282 1157.36 673.631 1154.93 674.33 1153.06 675.029 1151.19 675.903 1149.81 676.952 1148.94 678 1148.06 679.34 1147.44 680.971 1147.09 681.961 1146.92 683.767 1146.83 686.388 1146.83L694.253 1146.83C699.728 1146.83 703.194 1146.71 704.65 1146.48 706.107 1146.19 707.505 1145.66 708.845 1144.9L708.845 1151.13C707.621 1151.71 706.194 1152.09 704.563 1152.27ZM691.369 1152.8C692.243 1154.96 693 1158.18 693.641 1162.44 693.99 1164.9 694.398 1166.62 694.864 1167.62 695.272 1168.61 695.884 1169.4 696.699 1169.99 697.515 1170.51 698.446 1170.78 699.495 1170.78 701.068 1170.78 702.379 1170.19 703.427 1169.02 704.476 1167.79 705 1166.04 705 1163.76 705 1161.48 704.505 1159.46 703.514 1157.71 702.524 1155.89 701.155 1154.58 699.407 1153.76 698.068 1153.12 696.117 1152.8 693.553 1152.8L691.369 1152.8ZM703.602 1122.88 708.757 1122.01C709.107 1123.7 709.281 1125.19 709.281 1126.48 709.281 1128.64 708.961 1130.31 708.32 1131.48 707.621 1132.65 706.718 1133.5 705.611 1134.02 704.505 1134.49 702.174 1134.73 698.621 1134.73L678.611 1134.73 678.611 1139.02 674.068 1139.02 674.068 1134.73 665.417 1134.73 661.922 1128.85 674.068 1128.85 674.068 1122.88 678.611 1122.88 678.611 1128.85 698.971 1128.85C700.66 1128.85 701.738 1128.76 702.204 1128.59 702.67 1128.35 703.049 1128 703.34 1127.53 703.631 1127.07 703.777 1126.39 703.777 1125.52 703.777 1124.81 703.719 1123.94 703.602 1122.88ZM697.66 1095.08 698.359 1088.94C701.913 1089.87 704.68 1091.66 706.66 1094.29 708.641 1096.92 709.631 1100.25 709.631 1104.29 709.631 1109.38 708.058 1113.44 704.913 1116.48 701.767 1119.46 697.369 1120.95 691.719 1120.95 685.893 1120.95 681.378 1119.43 678.175 1116.39 674.913 1113.35 673.282 1109.44 673.282 1104.64 673.282 1099.96 674.854 1096.16 678 1093.24 681.145 1090.25 685.602 1088.76 691.369 1088.76 691.719 1088.76 692.243 1088.76 692.942 1088.76L692.942 1114.81C696.787 1114.58 699.728 1113.5 701.767 1111.57 703.747 1109.64 704.738 1107.21 704.738 1104.29 704.738 1102.13 704.184 1100.28 703.077 1098.76 701.913 1097.18 700.107 1095.96 697.66 1095.08ZM688.136 1114.46 688.136 1094.99C685.165 1095.23 682.951 1095.96 681.495 1097.18 679.223 1099.11 678.087 1101.57 678.087 1104.55 678.087 1107.3 678.99 1109.61 680.796 1111.48 682.602 1113.29 685.048 1114.29 688.136 1114.46ZM711.728 1080.78 712.602 1074.99C714.349 1074.76 715.631 1074.09 716.447 1072.98 717.553 1071.51 718.107 1069.53 718.107 1067.01 718.107 1064.26 717.553 1062.16 716.447 1060.7 715.34 1059.17 713.825 1058.15 711.903 1057.63 710.679 1057.27 708.145 1057.13 704.301 1057.19 707.33 1059.76 708.845 1062.98 708.845 1066.84 708.845 1071.63 707.126 1075.34 703.689 1077.97 700.194 1080.61 696.058 1081.92 691.281 1081.92 687.961 1081.92 684.903 1081.34 682.107 1080.17 679.253 1078.94 677.068 1077.19 675.553 1074.9 674.039 1072.62 673.282 1069.93 673.282 1066.84 673.282 1062.68 674.942 1059.26 678.262 1056.57L674.068 1056.57 674.068 1051.13 704.126 1051.13C709.544 1051.13 713.388 1051.69 715.66 1052.8 717.932 1053.91 719.709 1055.67 720.99 1058.06 722.33 1060.46 723 1063.41 723 1066.92 723 1071.08 722.068 1074.44 720.204 1077.01 718.34 1079.58 715.514 1080.84 711.728 1080.78ZM690.844 1075.87C695.388 1075.87 698.709 1074.96 700.806 1073.15 702.903 1071.34 703.952 1069.06 703.952 1066.31 703.952 1063.56 702.903 1061.28 700.806 1059.47 698.709 1057.6 695.447 1056.66 691.019 1056.66 686.767 1056.66 683.563 1057.63 681.408 1059.55 679.253 1061.43 678.175 1063.71 678.175 1066.4 678.175 1069.03 679.253 1071.28 681.408 1073.15 683.505 1074.96 686.651 1075.87 690.844 1075.87ZM691.456 1042.54C684.99 1042.54 680.214 1040.76 677.126 1037.19 674.563 1034.21 673.282 1030.55 673.282 1026.22 673.282 1021.43 674.854 1017.51 678 1014.47 681.087 1011.37 685.398 1009.82 690.932 1009.82 695.417 1009.82 698.942 1010.49 701.505 1011.84 704.068 1013.18 706.078 1015.17 707.534 1017.8 708.932 1020.38 709.631 1023.18 709.631 1026.22 709.631 1031.08 708.087 1035.02 705 1038.06 701.855 1041.05 697.34 1042.54 691.456 1042.54ZM691.456 1036.49C695.884 1036.49 699.204 1035.52 701.418 1033.59 703.631 1031.6 704.738 1029.15 704.738 1026.22 704.738 1023.24 703.631 1020.79 701.418 1018.86 699.204 1016.93 695.826 1015.96 691.281 1015.96 686.971 1015.96 683.709 1016.95 681.495 1018.94 679.281 1020.87 678.175 1023.3 678.175 1026.22 678.175 1029.15 679.281 1031.6 681.495 1033.59 683.651 1035.52 686.971 1036.49 691.456 1036.49ZM708.845 1001.14 674.068 1001.14 674.068 995.787 679.311 995.787C676.864 994.442 675.262 993.214 674.505 992.103 673.689 990.933 673.282 989.647 673.282 988.243 673.282 986.255 673.893 984.238 675.116 982.191L680.621 984.209C679.747 985.67 679.311 987.103 679.311 988.507 679.311 989.852 679.719 991.051 680.534 992.103 681.291 993.097 682.369 993.799 683.767 994.208 685.864 994.91 688.136 995.26 690.583 995.26L708.845 995.26 708.845 1001.14ZM722.214 978.858 716.708 979.56C717.058 978.273 717.233 977.133 717.233 976.139 717.233 974.852 717 973.829 716.534 973.069 716.126 972.25 715.544 971.578 714.786 971.052 714.146 970.7 712.66 970.087 710.33 969.209 710.039 969.151 709.573 968.976 708.932 968.683L674.068 982.016 674.068 975.613 694.165 968.332C696.728 967.397 699.437 966.549 702.291 965.789 699.554 965.087 696.903 964.268 694.34 963.333L674.068 955.877 674.068 950 709.456 963.245C713.243 964.707 715.864 965.818 717.32 966.578 719.301 967.63 720.728 968.859 721.602 970.262 722.534 971.607 723 973.215 723 975.086 723 976.197 722.738 977.455 722.214 978.858Z" fill-rule="evenodd"/><path d="M862.705 621.666 844 573 850.937 573 863.495 608.393C864.491 611.225 865.339 613.88 866.042 616.357 866.803 613.703 867.681 611.048 868.677 608.393L881.673 573 888.172 573 869.291 621.666 862.705 621.666ZM917.064 610.34 923.211 611.048C922.274 614.646 920.488 617.448 917.854 619.454 915.22 621.459 911.882 622.462 907.843 622.462 902.749 622.462 898.68 620.87 895.636 617.684 892.651 614.499 891.158 610.045 891.158 604.323 891.158 598.424 892.68 593.853 895.724 590.608 898.768 587.305 902.691 585.653 907.492 585.653 912.175 585.653 915.98 587.246 918.908 590.431 921.894 593.617 923.387 598.129 923.387 603.969 923.387 604.323 923.387 604.854 923.387 605.562L897.305 605.562C897.539 609.455 898.622 612.434 900.554 614.499 902.486 616.505 904.916 617.508 907.843 617.508 910.009 617.508 911.853 616.947 913.375 615.826 914.956 614.646 916.186 612.818 917.064 610.34ZM897.656 600.695 917.151 600.695C916.917 597.687 916.186 595.446 914.956 593.971 913.024 591.67 910.565 590.52 907.58 590.52 904.828 590.52 902.515 591.434 900.642 593.263 898.827 595.091 897.832 597.569 897.656 600.695ZM932.432 621.666 932.432 586.45 937.788 586.45 937.788 591.759C939.135 589.281 940.364 587.659 941.477 586.892 942.648 586.066 943.935 585.653 945.341 585.653 947.331 585.653 949.351 586.272 951.4 587.511L949.38 593.086C947.916 592.201 946.482 591.759 945.077 591.759 943.731 591.759 942.53 592.171 941.477 592.997 940.482 593.764 939.779 594.856 939.369 596.271 938.667 598.395 938.315 600.695 938.315 603.173L938.315 621.666 932.432 621.666ZM954.737 635.204 954.035 629.63C955.322 629.983 956.464 630.16 957.459 630.16 958.747 630.16 959.772 629.924 960.533 629.452 961.353 629.04 962.026 628.45 962.553 627.683 962.904 627.034 963.519 625.53 964.397 623.17 964.456 622.875 964.631 622.404 964.924 621.754L951.575 586.45 957.986 586.45 965.275 606.801C966.212 609.396 967.061 612.139 967.822 615.03 968.524 612.257 969.344 609.573 970.281 606.978L977.745 586.45 983.629 586.45 970.369 622.285C968.905 626.119 967.792 628.774 967.031 630.249 965.977 632.254 964.748 633.7 963.343 634.584 961.996 635.529 960.387 636.001 958.513 636.001 957.401 636.001 956.142 635.735 954.737 635.204ZM1006.02 621.666 1006.02 573 1012.43 573 1012.43 615.915 1036.23 615.915 1036.23 621.666 1006.02 621.666ZM1042.73 604.058C1042.73 597.51 1044.52 592.673 1048.09 589.547 1051.07 586.951 1054.73 585.653 1059.06 585.653 1063.86 585.653 1067.79 587.246 1070.83 590.431 1073.93 593.558 1075.49 597.923 1075.49 603.527 1075.49 608.069 1074.81 611.638 1073.47 614.233 1072.12 616.829 1070.13 618.864 1067.49 620.339 1064.92 621.754 1062.11 622.462 1059.06 622.462 1054.2 622.462 1050.25 620.899 1047.21 617.773 1044.22 614.587 1042.73 610.016 1042.73 604.058ZM1048.79 604.058C1048.79 608.541 1049.75 611.903 1051.69 614.145 1053.68 616.386 1056.14 617.508 1059.06 617.508 1062.05 617.508 1064.51 616.386 1066.44 614.145 1068.37 611.903 1069.34 608.482 1069.34 603.881 1069.34 599.516 1068.34 596.212 1066.35 593.971 1064.42 591.729 1061.99 590.608 1059.06 590.608 1056.14 590.608 1053.68 591.729 1051.69 593.971 1049.75 596.153 1048.79 599.516 1048.79 604.058ZM1090.68 621.666 1079.96 586.45 1086.11 586.45 1091.64 606.801 1093.75 614.322C1093.87 613.968 1094.48 611.549 1095.6 607.066L1101.13 586.45 1107.19 586.45 1112.46 606.889 1114.21 613.614 1116.23 606.801 1122.2 586.45 1128 586.45 1117.02 621.666 1110.88 621.666 1105.34 600.519 1103.94 594.59 1096.91 621.666 1090.68 621.666Z" fill-rule="evenodd"/><path d="M1006 917.211 1006 869 1012.41 869 1012.41 911.514 1036.21 911.514 1036.21 917.211 1006 917.211ZM1042.71 899.768C1042.71 893.281 1044.5 888.489 1048.07 885.392 1051.06 882.821 1054.72 881.535 1059.05 881.535 1063.85 881.535 1067.78 883.113 1070.82 886.268 1073.92 889.366 1075.48 893.69 1075.48 899.242 1075.48 903.742 1074.8 907.277 1073.46 909.849 1072.11 912.42 1070.12 914.436 1067.48 915.897 1064.91 917.299 1062.1 918.001 1059.05 918.001 1054.19 918.001 1050.24 916.452 1047.19 913.355 1044.21 910.199 1042.71 905.67 1042.71 899.768ZM1048.77 899.768C1048.77 904.209 1049.74 907.54 1051.67 909.761 1053.66 911.981 1056.12 913.092 1059.05 913.092 1062.04 913.092 1064.5 911.981 1066.43 909.761 1068.36 907.54 1069.33 904.151 1069.33 899.593 1069.33 895.268 1068.33 891.996 1066.34 889.775 1064.41 887.554 1061.98 886.444 1059.05 886.444 1056.12 886.444 1053.66 887.554 1051.67 889.775 1049.74 891.937 1048.77 895.268 1048.77 899.768ZM1090.67 917.211 1079.96 882.324 1086.1 882.324 1091.64 902.485 1093.74 909.936C1093.86 909.585 1094.48 907.189 1095.59 902.748L1101.12 882.324 1107.18 882.324 1112.45 902.573 1114.21 909.235 1116.23 902.485 1122.2 882.324 1128 882.324 1117.02 917.211 1110.87 917.211 1105.34 896.262 1103.93 890.388 1096.91 917.211 1090.67 917.211Z" fill-rule="evenodd"/><path d="M843 1213.21 843 1165 852.639 1165 864.032 1199.1C865.083 1202.31 865.843 1204.71 866.31 1206.29 866.836 1204.53 867.683 1201.96 868.851 1198.57L880.419 1165 889.007 1165 889.007 1213.21 882.873 1213.21 882.873 1172.89 868.851 1213.21 863.068 1213.21 849.134 1172.19 849.134 1213.21 843 1213.21ZM896.368 1195.77C896.368 1189.28 898.15 1184.49 901.714 1181.39 904.693 1178.82 908.344 1177.53 912.667 1177.53 917.458 1177.53 921.372 1179.11 924.41 1182.27 927.507 1185.37 929.055 1189.69 929.055 1195.24 929.055 1199.74 928.383 1203.28 927.039 1205.85 925.695 1208.42 923.709 1210.44 921.08 1211.9 918.51 1213.3 915.706 1214 912.667 1214 907.818 1214 903.875 1212.45 900.837 1209.35 897.857 1206.2 896.368 1201.67 896.368 1195.77ZM902.415 1195.77C902.415 1200.21 903.379 1203.54 905.307 1205.76 907.293 1207.98 909.746 1209.09 912.667 1209.09 915.647 1209.09 918.101 1207.98 920.029 1205.76 921.956 1203.54 922.92 1200.15 922.92 1195.59 922.92 1191.27 921.928 1188 919.941 1185.77 918.013 1183.55 915.588 1182.44 912.667 1182.44 909.746 1182.44 907.293 1183.55 905.307 1185.77 903.379 1187.94 902.415 1191.27 902.415 1195.77ZM960.427 1213.21 960.427 1208.83C958.207 1212.28 954.965 1214 950.7 1214 947.896 1214 945.325 1213.24 942.988 1211.72 940.651 1210.14 938.84 1207.98 937.555 1205.23 936.27 1202.49 935.627 1199.33 935.627 1195.77 935.627 1192.32 936.212 1189.16 937.38 1186.3 938.548 1183.44 940.301 1181.27 942.638 1179.81 944.974 1178.29 947.575 1177.53 950.437 1177.53 952.54 1177.53 954.41 1177.97 956.045 1178.85 957.681 1179.73 959.025 1180.87 960.076 1182.27L960.076 1165 965.948 1165 965.948 1213.21 960.427 1213.21ZM941.761 1195.77C941.761 1200.27 942.696 1203.63 944.566 1205.85 946.435 1208.01 948.655 1209.09 951.226 1209.09 953.796 1209.09 955.987 1208.04 957.798 1205.94 959.609 1203.83 960.515 1200.62 960.515 1196.29 960.515 1191.5 959.58 1188 957.711 1185.77 955.899 1183.55 953.65 1182.44 950.963 1182.44 948.334 1182.44 946.143 1183.52 944.39 1185.69 942.638 1187.79 941.761 1191.15 941.761 1195.77ZM1000.91 1201.99 1007.05 1202.69C1006.11 1206.26 1004.33 1209.03 1001.7 1211.02 999.073 1213.01 995.743 1214 991.712 1214 986.629 1214 982.569 1212.42 979.531 1209.27 976.552 1206.11 975.062 1201.7 975.062 1196.03 975.062 1190.19 976.581 1185.66 979.619 1182.44 982.656 1179.17 986.571 1177.53 991.361 1177.53 996.035 1177.53 999.833 1179.11 1002.75 1182.27 1005.73 1185.42 1007.22 1189.89 1007.22 1195.68 1007.22 1196.03 1007.22 1196.56 1007.22 1197.26L981.196 1197.26C981.43 1201.11 982.51 1204.07 984.439 1206.11 986.366 1208.1 988.791 1209.09 991.712 1209.09 993.874 1209.09 995.714 1208.54 997.233 1207.43 998.81 1206.26 1000.04 1204.45 1000.91 1201.99ZM981.546 1192.44 1001 1192.44C1000.77 1189.46 1000.04 1187.24 998.81 1185.77 996.882 1183.5 994.429 1182.36 991.449 1182.36 988.703 1182.36 986.395 1183.26 984.526 1185.07 982.715 1186.89 981.722 1189.34 981.546 1192.44ZM1016.25 1213.21 1016.25 1178.32 1021.59 1178.32 1021.59 1183.58C1022.94 1181.13 1024.16 1179.52 1025.28 1178.76 1026.44 1177.94 1027.73 1177.53 1029.13 1177.53 1031.12 1177.53 1033.13 1178.15 1035.18 1179.38L1033.16 1184.9C1031.7 1184.02 1030.27 1183.58 1028.87 1183.58 1027.52 1183.58 1026.33 1183.99 1025.28 1184.81 1024.28 1185.57 1023.58 1186.65 1023.17 1188.05 1022.47 1190.16 1022.12 1192.44 1022.12 1194.89L1022.12 1213.21 1016.25 1213.21ZM1061.55 1208.92C1059.33 1210.79 1057.2 1212.1 1055.16 1212.86 1053.17 1213.62 1051.01 1214 1048.67 1214 1044.82 1214 1041.87 1213.07 1039.82 1211.2 1037.78 1209.33 1036.75 1206.93 1036.75 1204.01 1036.75 1202.31 1037.13 1200.76 1037.89 1199.36 1038.65 1197.9 1039.68 1196.76 1040.96 1195.94 1042.25 1195.07 1043.68 1194.42 1045.26 1194.01 1046.36 1193.66 1048.12 1193.34 1050.51 1193.05 1055.25 1192.52 1058.75 1191.85 1061.03 1191.03 1061.03 1190.22 1061.03 1189.72 1061.03 1189.54 1061.03 1187.09 1060.47 1185.37 1059.36 1184.37 1057.85 1183.09 1055.6 1182.44 1052.62 1182.44 1049.87 1182.44 1047.83 1182.94 1046.48 1183.93 1045.14 1184.87 1044.15 1186.56 1043.5 1189.02L1037.72 1188.23C1038.24 1185.77 1039.12 1183.79 1040.35 1182.27 1041.57 1180.75 1043.33 1179.58 1045.61 1178.76 1047.88 1177.94 1050.51 1177.53 1053.49 1177.53 1056.47 1177.53 1058.9 1177.89 1060.77 1178.59 1062.64 1179.29 1064.01 1180.16 1064.89 1181.22 1065.76 1182.27 1066.37 1183.61 1066.73 1185.25 1066.9 1186.24 1066.99 1188.05 1066.99 1190.68L1066.99 1198.57C1066.99 1204.07 1067.1 1207.54 1067.34 1209 1067.63 1210.47 1068.16 1211.87 1068.92 1213.21L1062.69 1213.21C1062.11 1211.98 1061.73 1210.55 1061.55 1208.92ZM1061.03 1195.68C1058.87 1196.56 1055.65 1197.32 1051.39 1197.96 1048.94 1198.31 1047.21 1198.72 1046.22 1199.19 1045.23 1199.6 1044.44 1200.21 1043.85 1201.03 1043.33 1201.85 1043.06 1202.78 1043.06 1203.83 1043.06 1205.41 1043.65 1206.72 1044.82 1207.78 1046.04 1208.83 1047.8 1209.35 1050.08 1209.35 1052.35 1209.35 1054.37 1208.86 1056.12 1207.86 1057.93 1206.87 1059.25 1205.5 1060.06 1203.74 1060.71 1202.4 1061.03 1200.44 1061.03 1197.87L1061.03 1195.68ZM1090.91 1207.95 1091.79 1213.12C1090.09 1213.47 1088.6 1213.65 1087.32 1213.65 1085.16 1213.65 1083.49 1213.33 1082.32 1212.69 1081.16 1211.98 1080.31 1211.08 1079.78 1209.97 1079.32 1208.86 1079.08 1206.52 1079.08 1202.96L1079.08 1182.88 1074.79 1182.88 1074.79 1178.32 1079.08 1178.32 1079.08 1169.65 1084.95 1166.14 1084.95 1178.32 1090.91 1178.32 1090.91 1182.88 1084.95 1182.88 1084.95 1203.31C1084.95 1205 1085.04 1206.08 1085.22 1206.55 1085.45 1207.02 1085.8 1207.4 1086.27 1207.69 1086.73 1207.98 1087.41 1208.13 1088.28 1208.13 1088.98 1208.13 1089.86 1208.07 1090.91 1207.95ZM1118.69 1201.99 1124.83 1202.69C1123.89 1206.26 1122.11 1209.03 1119.48 1211.02 1116.85 1213.01 1113.52 1214 1109.49 1214 1104.41 1214 1100.35 1212.42 1097.31 1209.27 1094.33 1206.11 1092.84 1201.7 1092.84 1196.03 1092.84 1190.19 1094.36 1185.66 1097.4 1182.44 1100.43 1179.17 1104.35 1177.53 1109.14 1177.53 1113.81 1177.53 1117.61 1179.11 1120.53 1182.27 1123.51 1185.42 1125 1189.89 1125 1195.68 1125 1196.03 1125 1196.56 1125 1197.26L1098.97 1197.26C1099.21 1201.11 1100.29 1204.07 1102.22 1206.11 1104.14 1208.1 1106.57 1209.09 1109.49 1209.09 1111.65 1209.09 1113.49 1208.54 1115.01 1207.43 1116.59 1206.26 1117.81 1204.45 1118.69 1201.99ZM1099.32 1192.44 1118.78 1192.44C1118.54 1189.46 1117.81 1187.24 1116.59 1185.77 1114.66 1183.5 1112.21 1182.36 1109.23 1182.36 1106.48 1182.36 1104.17 1183.26 1102.3 1185.07 1100.49 1186.89 1099.5 1189.34 1099.32 1192.44Z" fill-rule="evenodd"/><path d="M989 1509.67 989 1461 995.31 1461 995.31 1481 1020.37 1481 1020.37 1461 1026.77 1461 1026.77 1509.67 1020.37 1509.67 1020.37 1486.75 995.31 1486.75 995.31 1509.67 989 1509.67ZM1038.52 1467.9 1038.52 1461 1044.48 1461 1044.48 1467.9 1038.52 1467.9ZM1038.52 1509.67 1038.52 1474.45 1044.48 1474.45 1044.48 1509.67 1038.52 1509.67ZM1054.2 1512.59 1059.99 1513.47C1060.22 1515.24 1060.89 1516.54 1062 1517.36 1063.46 1518.48 1065.45 1519.04 1067.96 1519.04 1070.71 1519.04 1072.81 1518.48 1074.27 1517.36 1075.79 1516.24 1076.81 1514.71 1077.34 1512.76 1077.69 1511.52 1077.84 1508.96 1077.78 1505.06 1075.21 1508.13 1071.99 1509.67 1068.14 1509.67 1063.35 1509.67 1059.64 1507.93 1057.01 1504.45 1054.38 1500.91 1053.06 1496.72 1053.06 1491.88 1053.06 1488.52 1053.65 1485.42 1054.82 1482.59 1056.04 1479.7 1057.8 1477.49 1060.08 1475.95 1062.35 1474.42 1065.04 1473.65 1068.14 1473.65 1072.29 1473.65 1075.7 1475.33 1078.39 1478.7L1078.39 1474.45 1083.83 1474.45 1083.83 1504.89C1083.83 1510.37 1083.27 1514.27 1082.16 1516.57 1081.05 1518.87 1079.3 1520.67 1076.9 1521.97 1074.51 1523.32 1071.56 1524 1068.05 1524 1063.9 1524 1060.54 1523.06 1057.97 1521.17 1055.4 1519.28 1054.15 1516.42 1054.2 1512.59ZM1059.11 1491.44C1059.11 1496.04 1060.02 1499.4 1061.83 1501.53 1063.64 1503.65 1065.92 1504.71 1068.66 1504.71 1071.41 1504.71 1073.69 1503.65 1075.5 1501.53 1077.37 1499.4 1078.3 1496.1 1078.3 1491.62 1078.3 1487.31 1077.34 1484.06 1075.41 1481.88 1073.54 1479.7 1071.26 1478.61 1068.58 1478.61 1065.95 1478.61 1063.7 1479.7 1061.83 1481.88 1060.02 1484.01 1059.11 1487.19 1059.11 1491.44ZM1094.61 1509.67 1094.61 1461 1100.48 1461 1100.48 1478.43C1103.22 1475.25 1106.7 1473.65 1110.91 1473.65 1113.54 1473.65 1115.78 1474.18 1117.65 1475.25 1119.58 1476.25 1120.96 1477.66 1121.77 1479.49 1122.59 1481.26 1123 1483.89 1123 1487.37L1123 1509.67 1117.13 1509.67 1117.13 1487.37C1117.13 1484.36 1116.49 1482.18 1115.2 1480.82 1113.92 1479.46 1112.1 1478.78 1109.77 1478.78 1108.01 1478.78 1106.35 1479.26 1104.77 1480.2 1103.25 1481.09 1102.14 1482.32 1101.44 1483.92 1100.8 1485.45 1100.48 1487.6 1100.48 1490.38L1100.48 1509.67 1094.61 1509.67Z" fill-rule="evenodd"/><path d="M845.653 1805.67 827 1757 833.918 1757 846.442 1792.39C847.434 1795.23 848.28 1797.88 848.981 1800.36 849.74 1797.7 850.616 1795.05 851.609 1792.39L864.569 1757 871.05 1757 852.222 1805.67 845.653 1805.67ZM899.862 1794.34 905.992 1795.05C905.058 1798.65 903.277 1801.45 900.65 1803.45 898.023 1805.46 894.695 1806.46 890.666 1806.46 885.587 1806.46 881.529 1804.87 878.494 1801.68 875.516 1798.5 874.027 1794.04 874.027 1788.32 874.027 1782.42 875.545 1777.85 878.581 1774.61 881.617 1771.3 885.529 1769.65 890.316 1769.65 894.987 1769.65 898.781 1771.25 901.7 1774.43 904.678 1777.62 906.167 1782.13 906.167 1787.97 906.167 1788.32 906.167 1788.85 906.167 1789.56L880.158 1789.56C880.391 1793.46 881.471 1796.43 883.398 1798.5 885.325 1800.5 887.747 1801.51 890.666 1801.51 892.826 1801.51 894.666 1800.95 896.183 1799.83 897.76 1798.65 898.986 1796.82 899.862 1794.34ZM880.508 1784.7 899.949 1784.7C899.716 1781.69 898.986 1779.45 897.76 1777.97 895.833 1775.67 893.381 1774.52 890.404 1774.52 887.659 1774.52 885.353 1775.43 883.485 1777.26 881.675 1779.09 880.683 1781.57 880.508 1784.7ZM915.187 1805.67 915.187 1770.45 920.529 1770.45 920.529 1775.76C921.872 1773.28 923.098 1771.66 924.207 1770.89 925.375 1770.07 926.659 1769.65 928.061 1769.65 930.045 1769.65 932.06 1770.27 934.103 1771.51L932.089 1777.09C930.629 1776.2 929.199 1775.76 927.798 1775.76 926.455 1775.76 925.258 1776.17 924.207 1777 923.215 1777.76 922.514 1778.86 922.105 1780.27 921.405 1782.4 921.054 1784.7 921.054 1787.17L921.054 1805.67 915.187 1805.67ZM937.431 1819.2 936.73 1813.63C938.014 1813.98 939.153 1814.16 940.146 1814.16 941.43 1814.16 942.452 1813.92 943.211 1813.45 944.028 1813.04 944.699 1812.45 945.225 1811.68 945.575 1811.03 946.188 1809.53 947.064 1807.17 947.123 1806.88 947.297 1806.4 947.589 1805.75L934.278 1770.45 940.671 1770.45 947.94 1790.8C948.874 1793.4 949.72 1796.14 950.48 1799.03 951.18 1796.26 951.997 1793.57 952.932 1790.98L960.375 1770.45 966.243 1770.45 953.019 1806.29C951.559 1810.12 950.45 1812.77 949.691 1814.25 948.64 1816.25 947.414 1817.7 946.013 1818.58 944.67 1819.53 943.065 1820 941.197 1820 940.087 1820 938.832 1819.73 937.431 1819.2ZM989.1 1805.67 989.1 1757 995.405 1757 995.405 1777 1020.45 1777 1020.45 1757 1026.84 1757 1026.84 1805.67 1020.45 1805.67 1020.45 1782.75 995.405 1782.75 995.405 1805.67 989.1 1805.67ZM1038.58 1763.9 1038.58 1757 1044.53 1757 1044.53 1763.9 1038.58 1763.9ZM1038.58 1805.67 1038.58 1770.45 1044.53 1770.45 1044.53 1805.67 1038.58 1805.67ZM1054.25 1808.59 1060.03 1809.47C1060.27 1811.24 1060.94 1812.54 1062.05 1813.36 1063.51 1814.49 1065.49 1815.05 1068 1815.05 1070.75 1815.05 1072.85 1814.49 1074.31 1813.36 1075.83 1812.24 1076.85 1810.71 1077.37 1808.76 1077.72 1807.52 1077.87 1804.96 1077.81 1801.06 1075.24 1804.13 1072.03 1805.67 1068.18 1805.67 1063.39 1805.67 1059.68 1803.93 1057.06 1800.45 1054.43 1796.91 1053.12 1792.72 1053.12 1787.88 1053.12 1784.52 1053.7 1781.42 1054.87 1778.59 1056.09 1775.7 1057.85 1773.49 1060.12 1771.95 1062.4 1770.42 1065.08 1769.65 1068.18 1769.65 1072.32 1769.65 1075.74 1771.33 1078.43 1774.7L1078.43 1770.45 1083.85 1770.45 1083.85 1800.89C1083.85 1806.37 1083.3 1810.27 1082.19 1812.57 1081.08 1814.87 1079.33 1816.67 1076.94 1817.97 1074.54 1819.32 1071.59 1820 1068.09 1820 1063.95 1820 1060.59 1819.06 1058.02 1817.17 1055.45 1815.28 1054.2 1812.42 1054.25 1808.59ZM1059.16 1787.44C1059.16 1792.04 1060.06 1795.4 1061.87 1797.53 1063.68 1799.65 1065.96 1800.71 1068.7 1800.71 1071.45 1800.71 1073.72 1799.65 1075.53 1797.53 1077.4 1795.4 1078.34 1792.1 1078.34 1787.62 1078.34 1783.31 1077.37 1780.06 1075.45 1777.88 1073.58 1775.7 1071.3 1774.61 1068.62 1774.61 1065.99 1774.61 1063.74 1775.7 1061.87 1777.88 1060.06 1780.01 1059.16 1783.19 1059.16 1787.44ZM1094.63 1805.67 1094.63 1757 1100.49 1757 1100.49 1774.43C1103.24 1771.25 1106.71 1769.65 1110.92 1769.65 1113.54 1769.65 1115.79 1770.18 1117.66 1771.25 1119.58 1772.25 1120.96 1773.66 1121.77 1775.49 1122.59 1777.26 1123 1779.89 1123 1783.37L1123 1805.67 1117.13 1805.67 1117.13 1783.37C1117.13 1780.36 1116.49 1778.18 1115.21 1776.82 1113.92 1775.46 1112.11 1774.78 1109.78 1774.78 1108.03 1774.78 1106.36 1775.26 1104.78 1776.2 1103.27 1777.09 1102.16 1778.32 1101.46 1779.92 1100.81 1781.45 1100.49 1783.6 1100.49 1786.38L1100.49 1805.67 1094.63 1805.67Z" fill-rule="evenodd"/><path d="M1147 2054.54C1147 2048.84 1147.58 2044.27 1148.73 2040.83 1149.89 2037.34 1151.59 2034.66 1153.84 2032.8 1156.15 2030.93 1159.04 2030 1162.5 2030 1165.04 2030 1167.26 2030.52 1169.17 2031.57 1171.13 2032.62 1172.75 2034.13 1174.02 2036.11 1175.29 2038.04 1176.27 2040.39 1176.96 2043.19 1177.65 2045.98 1178 2049.77 1178 2054.54 1178 2060.19 1177.42 2064.73 1176.27 2068.17 1175.17 2071.61 1173.47 2074.28 1171.16 2076.21 1168.91 2078.07 1166.02 2079 1162.5 2079 1157.94 2079 1154.33 2077.34 1151.68 2074.02 1148.56 2070.06 1147 2063.57 1147 2054.54ZM1152.97 2054.54C1152.97 2062.4 1153.9 2067.65 1155.75 2070.27 1157.59 2072.89 1159.84 2074.2 1162.5 2074.2 1165.21 2074.2 1167.46 2072.89 1169.25 2070.27 1171.1 2067.65 1172.03 2062.4 1172.03 2054.54 1172.03 2046.62 1171.1 2041.38 1169.25 2038.82 1167.46 2036.2 1165.18 2034.89 1162.41 2034.89 1159.76 2034.89 1157.62 2036.03 1156.01 2038.3 1153.99 2041.21 1152.97 2046.62 1152.97 2054.54Z" fill-rule="evenodd"/><path d="M1810.68 2078.21 1804.82 2078.21 1804.82 2040.66C1803.36 2042 1801.46 2043.36 1799.13 2044.76 1796.85 2046.1 1794.81 2047.09 1793 2047.73L1793 2042.05C1796.27 2040.48 1799.13 2038.62 1801.58 2036.46 1804.09 2034.25 1805.87 2032.1 1806.92 2030L1810.68 2030 1810.68 2078.21ZM1827.66 2054.54C1827.66 2048.84 1828.25 2044.27 1829.41 2040.83 1830.58 2037.34 1832.3 2034.66 1834.58 2032.8 1836.91 2030.93 1839.83 2030 1843.33 2030 1845.9 2030 1848.15 2030.52 1850.07 2031.57 1852.06 2032.62 1853.69 2034.13 1854.97 2036.11 1856.26 2038.04 1857.25 2040.39 1857.95 2043.19 1858.65 2045.98 1859 2049.77 1859 2054.54 1859 2060.19 1858.42 2064.73 1857.25 2068.17 1856.14 2071.61 1854.42 2074.28 1852.09 2076.21 1849.81 2078.07 1846.89 2079 1843.33 2079 1838.72 2079 1835.07 2077.34 1832.39 2074.02 1829.24 2070.06 1827.66 2063.57 1827.66 2054.54ZM1833.7 2054.54C1833.7 2062.4 1834.64 2067.65 1836.5 2070.27 1838.37 2072.89 1840.65 2074.2 1843.33 2074.2 1846.07 2074.2 1848.35 2072.89 1850.16 2070.27 1852.03 2067.65 1852.96 2062.4 1852.96 2054.54 1852.96 2046.62 1852.03 2041.38 1850.16 2038.82 1848.35 2036.2 1846.05 2034.89 1843.24 2034.89 1840.56 2034.89 1838.4 2036.03 1836.77 2038.3 1834.72 2041.21 1833.7 2046.62 1833.7 2054.54Z" fill-rule="evenodd"/><path d="M2480.71 2072.54 2480.71 2078.21 2449 2078.21C2449 2076.82 2449.23 2075.45 2449.7 2074.11 2450.51 2071.95 2451.79 2069.83 2453.53 2067.73 2455.33 2065.64 2457.91 2063.22 2461.28 2060.48 2466.51 2056.17 2470.02 2052.77 2471.82 2050.26 2473.68 2047.76 2474.61 2045.4 2474.61 2043.19 2474.61 2040.86 2473.77 2038.91 2472.09 2037.34 2470.4 2035.71 2468.22 2034.89 2465.55 2034.89 2462.71 2034.89 2460.44 2035.74 2458.76 2037.42 2457.07 2039.11 2456.2 2041.47 2456.14 2044.5L2450.13 2043.89C2450.54 2039.35 2452.08 2035.91 2454.75 2033.58 2457.48 2031.19 2461.14 2030 2465.73 2030 2470.31 2030 2473.94 2031.28 2476.62 2033.84 2479.29 2036.41 2480.62 2039.58 2480.62 2043.36 2480.62 2045.29 2480.22 2047.18 2479.4 2049.04 2478.65 2050.85 2477.34 2052.8 2475.48 2054.89 2473.68 2056.93 2470.69 2059.73 2466.51 2063.28 2462.97 2066.25 2460.67 2068.29 2459.63 2069.39 2458.64 2070.44 2457.83 2071.49 2457.19 2072.54L2480.71 2072.54ZM2488.81 2054.54C2488.81 2048.84 2489.39 2044.27 2490.55 2040.83 2491.72 2037.34 2493.43 2034.66 2495.69 2032.8 2498.02 2030.93 2500.92 2030 2504.41 2030 2506.96 2030 2509.2 2030.52 2511.11 2031.57 2513.09 2032.62 2514.72 2034.13 2515.99 2036.11 2517.27 2038.04 2518.26 2040.39 2518.96 2043.19 2519.65 2045.98 2520 2049.77 2520 2054.54 2520 2060.19 2519.42 2064.73 2518.26 2068.17 2517.15 2071.61 2515.44 2074.28 2513.12 2076.21 2510.85 2078.07 2507.95 2079 2504.41 2079 2499.82 2079 2496.19 2077.34 2493.52 2074.02 2490.38 2070.06 2488.81 2063.57 2488.81 2054.54ZM2494.82 2054.54C2494.82 2062.4 2495.75 2067.65 2497.61 2070.27 2499.47 2072.89 2501.74 2074.2 2504.41 2074.2 2507.14 2074.2 2509.4 2072.89 2511.2 2070.27 2513.06 2067.65 2513.99 2062.4 2513.99 2054.54 2513.99 2046.62 2513.06 2041.38 2511.2 2038.82 2509.4 2036.2 2507.11 2034.89 2504.32 2034.89 2501.65 2034.89 2499.5 2036.03 2497.87 2038.3 2495.84 2041.21 2494.82 2046.62 2494.82 2054.54Z" fill-rule="evenodd"/><path d="M3111 2065.49 3116.99 2064.7C3117.64 2068.01 3118.78 2070.43 3120.43 2071.94 3122.07 2073.39 3124.07 2074.12 3126.42 2074.12 3129.23 2074.12 3131.61 2073.16 3133.55 2071.24 3135.49 2069.32 3136.46 2066.94 3136.46 2064.09 3136.46 2061.42 3135.55 2059.21 3133.73 2057.46 3131.97 2055.66 3129.7 2054.76 3126.94 2054.76 3125.83 2054.76 3124.42 2054.99 3122.72 2055.46L3123.42 2050.23C3123.83 2050.29 3124.15 2050.31 3124.39 2050.31 3126.91 2050.31 3129.18 2049.68 3131.17 2048.4 3133.23 2047.06 3134.26 2045.03 3134.26 2042.29 3134.26 2040.14 3133.52 2038.37 3132.05 2036.97 3130.59 2035.52 3128.68 2034.8 3126.33 2034.8 3124.04 2034.8 3122.1 2035.52 3120.51 2036.97 3118.99 2038.43 3118.02 2040.58 3117.61 2043.43L3111.62 2042.38C3112.32 2038.49 3113.97 2035.46 3116.55 2033.31 3119.13 2031.1 3122.33 2030 3126.15 2030 3128.79 2030 3131.23 2030.58 3133.46 2031.74 3135.69 2032.85 3137.4 2034.36 3138.57 2036.28 3139.75 2038.2 3140.33 2040.26 3140.33 2042.47 3140.33 2044.5 3139.78 2046.39 3138.66 2048.14 3137.54 2049.82 3135.9 2051.16 3133.73 2052.15 3136.55 2052.79 3138.75 2054.15 3140.33 2056.24 3141.92 2058.28 3142.71 2060.86 3142.71 2064 3142.71 2068.19 3141.16 2071.73 3138.04 2074.64 3134.99 2077.55 3131.11 2079 3126.42 2079 3122.19 2079 3118.66 2077.75 3115.85 2075.25 3113.03 2072.69 3111.41 2069.44 3111 2065.49ZM3150.46 2054.5C3150.46 2048.8 3151.05 2044.24 3152.23 2040.81 3153.4 2037.32 3155.13 2034.65 3157.42 2032.79 3159.77 2030.93 3162.71 2030 3166.23 2030 3168.82 2030 3171.08 2030.52 3173.02 2031.57 3175.01 2032.62 3176.66 2034.13 3177.95 2036.1 3179.24 2038.02 3180.24 2040.38 3180.94 2043.17 3181.65 2045.96 3182 2049.73 3182 2054.5 3182 2060.14 3181.41 2064.67 3180.24 2068.1 3179.12 2071.53 3177.39 2074.2 3175.04 2076.12 3172.75 2077.98 3169.81 2078.91 3166.23 2078.91 3161.59 2078.91 3157.92 2077.26 3155.22 2073.94 3152.05 2069.99 3150.46 2063.51 3150.46 2054.5ZM3156.54 2054.5C3156.54 2062.35 3157.48 2067.58 3159.36 2070.19 3161.24 2072.81 3163.53 2074.12 3166.23 2074.12 3168.99 2074.12 3171.28 2072.81 3173.1 2070.19 3174.98 2067.58 3175.92 2062.35 3175.92 2054.5 3175.92 2046.59 3174.98 2041.36 3173.1 2038.81 3171.28 2036.19 3168.96 2034.88 3166.14 2034.88 3163.44 2034.88 3161.27 2036.02 3159.63 2038.28 3157.57 2041.19 3156.54 2046.59 3156.54 2054.5Z" fill-rule="evenodd"/><path d="M3790.98 2078.21 3790.98 2066.68 3770 2066.68 3770 2061.27 3792.13 2030.17 3796.98 2030.17 3796.98 2061.27 3803.5 2061.27 3803.5 2066.68 3796.98 2066.68 3796.98 2078.21 3790.98 2078.21ZM3790.98 2061.27 3790.98 2039.7 3775.82 2061.27 3790.98 2061.27ZM3811.44 2054.54C3811.44 2048.84 3812.03 2044.27 3813.2 2040.83 3814.38 2037.34 3816.11 2034.66 3818.4 2032.8 3820.75 2030.93 3823.69 2030 3827.22 2030 3829.81 2030 3832.07 2030.52 3834.01 2031.57 3836.01 2032.62 3837.65 2034.13 3838.95 2036.11 3840.24 2038.04 3841.24 2040.39 3841.94 2043.19 3842.65 2045.98 3843 2049.77 3843 2054.54 3843 2060.19 3842.41 2064.73 3841.24 2068.17 3840.12 2071.61 3838.39 2074.28 3836.04 2076.21 3833.74 2078.07 3830.8 2079 3827.22 2079 3822.58 2079 3818.9 2077.34 3816.2 2074.02 3813.02 2070.06 3811.44 2063.57 3811.44 2054.54ZM3817.52 2054.54C3817.52 2062.4 3818.46 2067.65 3820.34 2070.27 3822.22 2072.89 3824.52 2074.2 3827.22 2074.2 3829.98 2074.2 3832.27 2072.89 3834.1 2070.27 3835.98 2067.65 3836.92 2062.4 3836.92 2054.54 3836.92 2046.62 3835.98 2041.38 3834.1 2038.82 3832.27 2036.2 3829.95 2034.89 3827.13 2034.89 3824.43 2034.89 3822.25 2036.03 3820.61 2038.3 3818.55 2041.21 3817.52 2046.62 3817.52 2054.54Z" fill-rule="evenodd"/></g></svg>